<svg xmlns="http://www.w3.org/2000/svg" width="24" height="24" fill="none" viewBox="0 0 24 24">
    <path fill="#fff" d="M2.002 12.002c.001 4.92 3.578 9.109 8.437 9.88v-6.99H7.902v-2.89h2.54v-2.2c-.114-1.042.242-2.08.972-2.835.729-.753 1.755-1.143 2.801-1.064.75.012 1.5.079 2.24.2v2.459h-1.264c-.435-.057-.873.086-1.19.39-.316.304-.477.735-.438 1.172v1.878h2.771l-.443 2.891h-2.328v6.988c5.254-.83 8.939-5.629 8.385-10.92-.555-5.29-5.155-9.22-10.467-8.943-5.313.277-9.478 4.665-9.48 9.985z"/>
</svg>
