<svg xmlns="http://www.w3.org/2000/svg" width="24" height="24" fill="none" viewBox="0 0 24 24">
    <path fill="#fff" d="M12.002 21.042c-2.46 0-2.75-.013-3.71-.055-.749-.025-1.488-.177-2.185-.45-1.207-.47-2.16-1.424-2.63-2.631-.263-.7-.404-1.44-.419-2.187-.056-.958-.056-1.272-.056-3.713 0-2.467.013-2.755.056-3.71.015-.747.157-1.485.419-2.184C3.946 4.903 4.9 3.948 6.11 3.48c.699-.264 1.437-.406 2.184-.42.955-.054 1.269-.054 3.708-.054 2.48 0 2.765.013 3.71.054.748.014 1.49.156 2.19.42 1.208.469 2.164 1.424 2.633 2.632.267.709.41 1.46.421 2.217.056.958.056 1.27.056 3.71s-.014 2.76-.056 3.708c-.015.748-.157 1.488-.42 2.189-.47 1.208-1.426 2.162-2.634 2.632-.7.262-1.439.404-2.186.419-.955.055-1.268.055-3.714.055zm-.034-16.453c-2.446 0-2.7.012-3.655.055-.57.007-1.135.113-1.67.31-.788.303-1.413.925-1.718 1.713-.2.54-.305 1.11-.311 1.687-.053.969-.053 1.223-.053 3.652 0 2.4.009 2.69.053 3.654.009.57.114 1.135.311 1.67.306.787.93 1.409 1.719 1.71.534.2 1.099.306 1.669.312.968.056 1.223.056 3.655.056 2.453 0 2.707-.012 3.654-.056.57-.007 1.135-.112 1.67-.311.784-.305 1.405-.925 1.71-1.71.2-.54.305-1.11.311-1.687h.011c.043-.956.043-1.211.043-3.654 0-2.443-.011-2.7-.054-3.655-.009-.57-.114-1.134-.311-1.668-.304-.786-.925-1.407-1.71-1.712-.535-.2-1.1-.305-1.67-.311-.967-.055-1.22-.055-3.654-.055zm.034 12.036c-1.87.001-3.557-1.124-4.273-2.852-.717-1.727-.322-3.716 1-5.039 1.321-1.323 3.31-1.719 5.038-1.004 1.728.715 2.855 2.4 2.855 4.27-.003 2.552-2.069 4.62-4.62 4.625zm0-7.626c-1.657 0-3 1.343-3 3s1.343 3 3 3 3-1.343 3-3c-.004-1.655-1.345-2.996-3-3zm4.8-.713c-.595-.002-1.075-.486-1.074-1.08.001-.595.483-1.076 1.078-1.076.595 0 1.077.481 1.078 1.076 0 .287-.114.562-.317.765-.203.202-.478.316-.765.315z"/>
</svg>
