<svg xmlns="http://www.w3.org/2000/svg" width="24" height="24" fill="none" viewBox="0 0 24 24">
    <path fill="#fff" d="M19.995 6.689c.896-.536 1.567-1.38 1.887-2.374-.842.5-1.764.852-2.725 1.041-1.332-1.41-3.444-1.753-5.154-.837-1.71.915-2.595 2.861-2.162 4.752-3.45-.173-6.665-1.803-8.844-4.484-1.137 1.961-.556 4.469 1.328 5.73-.681-.022-1.347-.206-1.943-.538v.054c0 2.043 1.44 3.803 3.443 4.208-.632.172-1.295.197-1.938.074.563 1.747 2.174 2.944 4.009 2.98-1.52 1.193-3.398 1.84-5.33 1.837-.343 0-.685-.02-1.025-.059 1.962 1.261 4.246 1.93 6.579 1.928 3.245.022 6.364-1.257 8.659-3.552 2.294-2.295 3.574-5.414 3.551-8.659 0-.186-.004-.371-.013-.555.84-.607 1.566-1.36 2.142-2.222-.783.347-1.613.575-2.464.676z"/>
</svg>
